<svg width="20" height="20" viewBox="0 0 20 20" fill="none" xmlns="http://www.w3.org/2000/svg">
<path d="M10.3749 15C9.03903 15 7.78361 14.48 6.83902 13.5354C6.75776 13.4541 6.75776 13.3221 6.83902 13.2408C6.92027 13.1596 7.05233 13.1596 7.13359 13.2408C7.99945 14.1067 9.15072 14.5834 10.3749 14.5834C11.599 14.5834 12.7499 14.1067 13.6157 13.2408C14.4815 12.375 14.9582 11.2241 14.9582 10C14.9582 8.77586 14.4815 7.62459 13.6157 6.75873C12.7499 5.89294 11.599 5.41664 10.3749 5.41664C9.15072 5.41664 7.99983 5.89333 7.13404 6.75919C7.05279 6.84044 6.92073 6.84044 6.83947 6.75919C6.75822 6.67793 6.75822 6.54587 6.83947 6.46461C7.78399 5.52002 9.03941 5 10.3749 5C11.7107 5 12.9661 5.52002 13.9107 6.46461C14.8553 7.40913 15.3749 8.66455 15.3749 10C15.3749 11.3354 14.8548 12.5909 13.9102 13.5354C12.9657 14.48 11.7103 15 10.3749 15Z" fill="#003C82"/>
<path d="M8.5 7.08336H6.83336C6.71831 7.08336 6.625 6.98997 6.625 6.875V5.20836C6.625 5.09331 6.71831 5 6.83336 5C6.94833 5 7.04164 5.09331 7.04164 5.20836V6.66664H8.5C8.61497 6.66664 8.70836 6.76003 8.70836 6.875C8.70836 6.98997 8.61497 7.08336 8.5 7.08336Z" fill="#003C82"/>
<circle cx="10" cy="10" r="9.75" stroke="#003C82" stroke-width="0.5"/>
</svg>
