<svg width="20" height="20" viewBox="0 0 20 20" fill="none" xmlns="http://www.w3.org/2000/svg">
<path d="M13.7778 7.33366H11.5556C11.4329 7.33366 11.3333 7.23366 11.3333 7.11143V4.88922C11.3333 4.76655 11.2338 4.66699 11.1111 4.66699H6.66667C6.2991 4.66699 6 4.9661 6 5.33366V14.667C6 15.0346 6.2991 15.3337 6.66667 15.3337H13.3333C13.7009 15.3337 14 15.0346 14 14.667V7.55589C14 7.43322 13.9004 7.33366 13.7778 7.33366ZM13.5556 14.667C13.5556 14.7892 13.456 14.8892 13.3333 14.8892H6.66667C6.544 14.8892 6.44444 14.7892 6.44444 14.667V5.33366C6.44444 5.21143 6.544 5.11143 6.66667 5.11143H10.8889V7.11143C10.8889 7.47899 11.188 7.7781 11.5556 7.7781H13.5556V14.667Z" fill="#003C82"/>
<path d="M13.9348 7.39866L11.2681 4.73199C11.1815 4.64533 11.0406 4.64533 10.9539 4.73199C10.8672 4.81866 10.8672 4.95955 10.9539 5.04622L13.6206 7.71289C13.6641 7.75599 13.721 7.77778 13.7779 7.77778C13.8348 7.77778 13.8917 7.75601 13.9348 7.71289C14.0215 7.62622 14.0215 7.48533 13.9348 7.39866Z" fill="#003C82"/>
<circle cx="10" cy="10" r="9.75" stroke="#003C82" stroke-width="0.5"/>
</svg>
