<svg width="20" height="20" viewBox="0 0 20 20" fill="none" xmlns="http://www.w3.org/2000/svg">
<path d="M9 16C8.7195 16 8.5 15.7805 8.5 15.5C8.5 15.491 8.5005 15.4575 8.5015 15.4485L8.972 11H6.5C6.2195 11 6 10.7805 6 10.5C6 10.3935 6.0365 10.284 6.1005 10.1995L10.092 4.2115C10.1935 4.075 10.3435 4 10.5 4C10.7805 4 11 4.2195 11 4.5C11 4.51 10.9995 4.5495 10.9985 4.5595L10.531 8.5H13.5C13.7805 8.5 14 8.7195 14 9C14 9.1055 13.9635 9.215 13.9 9.3L9.4055 15.7925C9.3065 15.925 9.1565 16 9 16ZM10.5015 4.5005L6.508 10.489L9.25 10.5C9.321 10.5 9.3885 10.53 9.436 10.583C9.4835 10.636 9.5065 10.706 9.4985 10.7765L8.9985 15.5015L13.5 9C13.5 8.9985 13.5 8.998 13.5 8.998L10.25 9C10.1785 9 10.1105 8.9695 10.063 8.916C10.0155 8.8625 9.993 8.7915 10.0015 8.7205L10.5015 4.5005Z" fill="#003C82"/>
<circle cx="10" cy="10" r="9.75" stroke="#003C82" stroke-width="0.5"/>
</svg>
