<svg width="18" height="18" viewBox="0 0 18 18" fill="none" xmlns="http://www.w3.org/2000/svg">
<g clip-path="url(#clip0_2_9)">
<path d="M17.7801 16.7204L12.6614 11.6017C13.6529 10.377 14.2498 8.82074 14.2498 7.12577C14.2498 3.19731 11.0534 0.000823975 7.12491 0.000823975C3.19645 0.000823975 0 3.19727 0 7.12574C0 11.0542 3.19648 14.2507 7.12494 14.2507C8.81991 14.2507 10.3762 13.6537 11.6009 12.6622L16.7196 17.7809C16.8658 17.9271 17.0578 18.0007 17.2498 18.0007C17.4419 18.0007 17.6339 17.9271 17.7801 17.7809C18.0733 17.4877 18.0733 17.0137 17.7801 16.7204ZM7.12494 12.7507C4.02296 12.7507 1.5 10.2277 1.5 7.12574C1.5 4.02375 4.02296 1.50079 7.12494 1.50079C10.2269 1.50079 12.7499 4.02375 12.7499 7.12574C12.7499 10.2277 10.2269 12.7507 7.12494 12.7507Z" fill="white"/>
</g>
<defs>
<clipPath id="clip0_2_9">
<rect width="18" height="18" fill="white"/>
</clipPath>
</defs>
</svg>
