<svg width="20" height="20" viewBox="0 0 20 20" fill="none" xmlns="http://www.w3.org/2000/svg">
<path d="M12.1547 13.7923C11.8946 13.7924 11.6386 13.7275 11.4099 13.6035C11.1813 13.4794 10.9873 13.3001 10.8457 13.0819C10.7041 12.8638 10.6192 12.6136 10.599 12.3543C10.5787 12.095 10.6236 11.8347 10.7297 11.5972C10.8357 11.3596 10.9994 11.1524 11.206 10.9943C11.4126 10.8363 11.6554 10.7324 11.9124 10.6921C12.1694 10.6519 12.4324 10.6766 12.6774 10.7639C12.9224 10.8513 13.1417 10.9985 13.3152 11.1923C13.5165 11.4164 13.6485 11.694 13.6952 11.9916C13.742 12.2891 13.7016 12.5939 13.5788 12.8689C13.456 13.144 13.2562 13.3776 13.0034 13.5414C12.7507 13.7053 12.4559 13.7924 12.1547 13.7923ZM12.1547 11.2147C11.9214 11.2149 11.6953 11.2952 11.5141 11.4421C11.3329 11.589 11.2077 11.7937 11.1592 12.0218C11.1108 12.25 11.1421 12.4879 11.248 12.6957C11.3539 12.9036 11.5279 13.0688 11.741 13.1638C11.954 13.2587 12.1932 13.2777 12.4186 13.2175C12.6439 13.1573 12.8418 13.0215 12.9791 12.833C13.1164 12.6444 13.1849 12.4144 13.173 12.1815C13.1611 11.9485 13.0697 11.7267 12.9139 11.5531C12.8183 11.4461 12.7011 11.3607 12.57 11.3023C12.439 11.244 12.2971 11.2141 12.1536 11.2147H12.1547Z" fill="#003C82"/>
<path d="M7.84685 9.32546C7.58673 9.32563 7.3307 9.26073 7.10207 9.13667C6.87344 9.0126 6.67948 8.83332 6.53784 8.61515C6.3962 8.39697 6.31138 8.14683 6.29112 7.8875C6.27085 7.62818 6.31578 7.3679 6.4218 7.13037C6.52782 6.89284 6.69158 6.6856 6.89816 6.52753C7.10474 6.36945 7.34758 6.26557 7.60457 6.22532C7.86155 6.18508 8.12453 6.20975 8.36954 6.29711C8.61455 6.38446 8.83383 6.53172 9.00739 6.72546C9.20863 6.94958 9.34063 7.22721 9.3874 7.52477C9.43418 7.82233 9.39373 8.12706 9.27096 8.40212C9.14818 8.67717 8.94834 8.91076 8.6956 9.07463C8.44286 9.23849 8.14806 9.32562 7.84685 9.32546ZM7.84685 6.74789C7.6136 6.74818 7.38751 6.82851 7.20636 6.97545C7.02522 7.1224 6.89999 7.32705 6.8516 7.55523C6.80322 7.78341 6.83461 8.02128 6.94052 8.22909C7.04644 8.43691 7.22046 8.60208 7.43352 8.69701C7.64658 8.79194 7.88577 8.81088 8.11111 8.75065C8.33645 8.69043 8.5343 8.55469 8.67159 8.36613C8.80889 8.17756 8.87731 7.94759 8.86543 7.71465C8.85354 7.4817 8.76208 7.25989 8.60631 7.08627C8.51053 6.97947 8.39327 6.89412 8.2622 6.8358C8.13113 6.77749 7.98922 6.74753 7.84576 6.74789H7.84685Z" fill="#003C82"/>
<path d="M6.39823 13.7795C6.34444 13.7796 6.29184 13.7636 6.24717 13.7337C6.20249 13.7037 6.16778 13.6611 6.14746 13.6113C6.12715 13.5615 6.12215 13.5067 6.13312 13.4541C6.14409 13.4014 6.17052 13.3532 6.20904 13.3157L13.4134 6.29729C13.4647 6.24712 13.5339 6.2194 13.6057 6.22023C13.6775 6.22107 13.746 6.25039 13.7962 6.30175C13.8464 6.35311 13.8741 6.4223 13.8733 6.49409C13.8724 6.56589 13.8431 6.63441 13.7918 6.68459L6.58688 13.7027C6.53641 13.7519 6.46871 13.7795 6.39823 13.7795Z" fill="#003C82"/>
<circle cx="10" cy="10" r="9.75" stroke="#003C82" stroke-width="0.5"/>
</svg>
