<svg width="72" height="72" viewBox="0 0 72 72" fill="none" xmlns="http://www.w3.org/2000/svg">
<g clip-path="url(#clip0_9_84)">
<path d="M63.5592 48.0811C61.624 53.326 58.6972 57.8864 54.8592 61.6344C50.4904 65.9004 44.7699 69.2902 37.8562 71.7083C37.6293 71.7874 37.3925 71.8522 37.1547 71.9C36.8405 71.9621 36.5208 71.9956 36.2038 72H36.1417C35.8039 72 35.4644 71.9659 35.1277 71.9C34.8898 71.8522 34.6564 71.7874 34.4306 71.71C27.5087 69.2957 21.7809 65.9075 17.4078 61.6415C13.5681 57.8935 10.6419 53.3359 8.70939 48.091C5.19541 38.5549 5.39537 28.0497 5.55632 19.6078L5.55906 19.4782C5.59147 18.7811 5.61235 18.0489 5.62388 17.2403C5.68266 13.2704 8.83903 9.98599 12.8095 9.76462C21.0877 9.30264 27.4916 6.60275 32.9634 1.26943L33.0112 1.22549C33.9197 0.392173 35.0645 -0.016518 36.2038 0.000510878C37.3024 0.0147931 38.3967 0.422935 39.2728 1.22549L39.3195 1.26943C44.7924 6.60275 51.1963 9.30264 59.4745 9.76462C63.445 9.98599 66.6014 13.2704 66.6601 17.2403C66.6717 18.0544 66.6925 18.7855 66.725 19.4782L66.7266 19.5331C66.887 27.9909 67.0859 38.5169 63.5592 48.0811Z" fill="#00DD80"/>
<path d="M63.5591 48.0811C61.6238 53.326 58.697 57.8864 54.859 61.6344C50.4903 65.9004 44.7697 69.2902 37.856 71.7083C37.6291 71.7874 37.3923 71.8522 37.1545 71.9C36.8403 71.9621 36.5206 71.9956 36.2036 72V0.000488281C37.3022 0.0147706 38.3965 0.422913 39.2726 1.22546L39.3193 1.26941C44.7922 6.60273 51.1961 9.30262 59.4743 9.7646C63.4448 9.98597 66.6012 13.2703 66.6599 17.2402C66.6715 18.0543 66.6924 18.7855 66.7248 19.4782L66.7264 19.5331C66.8868 27.9909 67.0857 38.5169 63.5591 48.0811Z" fill="#00AA63"/>
<path d="M54.0843 35.9999C54.0843 45.8728 46.0681 53.9093 36.2035 53.9444H36.1403C26.2466 53.9444 18.1958 45.8942 18.1958 35.9999C18.1958 26.1061 26.2466 18.0559 36.1403 18.0559H36.2035C46.0681 18.0911 54.0843 26.1276 54.0843 35.9999Z" fill="white"/>
<path d="M54.0844 35.9999C54.0844 45.8728 46.0683 53.9093 36.2036 53.9444V18.0559C46.0683 18.0911 54.0844 26.1276 54.0844 35.9999Z" fill="#E1EBF0"/>
<path d="M44.2852 33.416L36.2037 41.4986L34.4574 43.2449C34.0449 43.6574 33.5038 43.8634 32.9633 43.8634C32.4222 43.8634 31.8817 43.6574 31.4686 43.2449L27.714 39.4887C26.8889 38.6636 26.8889 37.3271 27.714 36.5015C28.538 35.6764 29.8761 35.6764 30.7012 36.5015L32.9633 38.7636L41.2981 30.4288C42.1231 29.6032 43.4613 29.6032 44.2852 30.4288C45.1103 31.2539 45.1103 32.592 44.2852 33.416Z" fill="#B4D2D7"/>
<path d="M44.2851 33.416L36.2036 41.4986V35.5226L41.298 30.4288C42.123 29.6032 43.4612 29.6032 44.2851 30.4288C45.1102 31.2539 45.1102 32.592 44.2851 33.416Z" fill="#6FA5AA"/>
</g>
<defs>
<clipPath id="clip0_9_84">
<rect width="72" height="72" fill="white"/>
</clipPath>
</defs>
</svg>
