<svg width="19" height="19" viewBox="0 0 19 19" fill="none" xmlns="http://www.w3.org/2000/svg">
<path d="M16.2175 12.2825C15.1828 11.2478 13.9512 10.4818 12.6075 10.0181C14.0467 9.02689 14.9922 7.36799 14.9922 5.49219C14.9922 2.4638 12.5284 0 9.5 0C6.47162 0 4.00781 2.4638 4.00781 5.49219C4.00781 7.36799 4.95332 9.02689 6.39253 10.0181C5.0488 10.4818 3.81722 11.2478 2.7825 12.2825C0.988186 14.0768 0 16.4625 0 19H1.48438C1.48438 14.5802 5.08016 10.9844 9.5 10.9844C13.9198 10.9844 17.5156 14.5802 17.5156 19H19C19 16.4625 18.0118 14.0768 16.2175 12.2825ZM9.5 9.5C7.2901 9.5 5.49219 7.70213 5.49219 5.49219C5.49219 3.28225 7.2901 1.48438 9.5 1.48438C11.7099 1.48438 13.5078 3.28225 13.5078 5.49219C13.5078 7.70213 11.7099 9.5 9.5 9.5Z" fill="#003C82"/>
</svg>
